<?xml version="1.0" encoding="UTF-8" standalone="no"?>
<!-- Generator: Gravit.io -->

<svg
   style="isolation:isolate"
   viewBox="-33.667 638.957 996.532 677.293"
   width="996.532pt"
   height="677.293pt"
   version="1.1"
   id="svg1208"
   sodipodi:docname="logo.svg"
   inkscape:version="1.1.2 (0a00cf5339, 2022-02-04)"
   xmlns:inkscape="http://www.inkscape.org/namespaces/inkscape"
   xmlns:sodipodi="http://sodipodi.sourceforge.net/DTD/sodipodi-0.dtd"
   xmlns="http://www.w3.org/2000/svg"
   xmlns:svg="http://www.w3.org/2000/svg">
   <sodipodi:namedview
      id="namedview1210"
      pagecolor="#505050"
      bordercolor="#eeeeee"
      borderopacity="1"
      inkscape:pageshadow="0"
      inkscape:pageopacity="0"
      inkscape:pagecheckerboard="0"
      inkscape:document-units="pt"
      showgrid="false"
      inkscape:zoom="0.38054492"
      inkscape:cx="653.01095"
      inkscape:cy="402.05503"
      inkscape:window-width="1366"
      inkscape:window-height="698"
      inkscape:window-x="0"
      inkscape:window-y="40"
      inkscape:window-maximized="1"
      inkscape:current-layer="g1206" />
   <defs
      id="defs1157">
      <clipPath
         id="_clipPath_zOzxyWWTA2gtI0ia861JZECCcpM6wg4M">
      <rect
         x="-33.667"
         y="638.957"
         width="996.532"
         height="677.293"
         id="rect1154" />
    </clipPath>
  </defs>
  <g
     clip-path="url(#_clipPath_zOzxyWWTA2gtI0ia861JZECCcpM6wg4M)"
     id="g1206">
    <linearGradient
       id="_lgradient_0"
       x1="-0.06947052889509389"
       y1="0.45416286232531117"
       x2="0.9589929027474648"
       y2="0.875607742564187"
       gradientTransform="scale(1328.7093,903.05733)"
       gradientUnits="userSpaceOnUse">
      <stop
         offset="2.5%"
         stop-opacity="1"
         style="stop-color:rgb(134,42,91)"
         id="stop1159" />
      <stop
         offset="23.10065591067485%"
         stop-opacity="1"
         style="stop-color:rgb(73,33,108)"
         id="stop1161" />
      <stop
         offset="34.823761013089694%"
         stop-opacity="1"
         style="stop-color:rgb(69,33,106)"
         id="stop1163" />
      <stop
         offset="39.166666666666664%"
         stop-opacity="1"
         style="stop-color:rgb(40,29,90)"
         id="stop1165" />
      <stop
         offset="52.09006333846208%"
         stop-opacity="1"
         style="stop-color:rgb(46,32,114)"
         id="stop1167" />
      <stop
         offset="56.19999012123756%"
         stop-opacity="1"
         style="stop-color:rgb(46,32,115)"
         id="stop1169" />
      <stop
         offset="59.88607331344989%"
         stop-opacity="1"
         style="stop-color:rgb(43,18,123)"
         id="stop1171" />
      <stop
         offset="70.6888595180135%"
         stop-opacity="1"
         style="stop-color:rgb(51,34,139)"
         id="stop1173" />
      <stop
         offset="78.70746676069678%"
         stop-opacity="1"
         style="stop-color:rgb(52,38,172)"
         id="stop1175" />
      <stop
         offset="88.57037750593243%"
         stop-opacity="1"
         style="stop-color:rgb(29,83,173)"
         id="stop1177" />
      <stop
         offset="100%"
         stop-opacity="1"
         style="stop-color:rgb(58,99,190)"
         id="stop1179" />
    </linearGradient>
    <path
       id="path1182"
       style="stroke-width:1.33333;fill:url(#_lgradient_0)"
       d="M 1099.4473 0 C 1082.4595 0.020544445 1064.3237 1.7796406 1045.3887 6.0566406 C 1043.2433 6.6753073 1015.966 15.343307 1013.8887 16.056641 C 980.44304 30.465974 949.08734 54.721974 924.38867 83.556641 C 916.03934 94.835307 909.62334 107.00597 901.88867 116.05664 C 887.97667 132.33797 874.32067 144.62731 853.38867 146.55664 C 841.42734 148.03397 822.70051 149.05714 802.45117 141.36914 C 782.95117 135.53581 769.35001 129.20331 750.38867 127.55664 C 681.95801 121.61531 621.38867 124.05664 538.88867 181.55664 C 530.20334 188.02331 519.11534 197.06326 509.88867 205.30859 C 503.95667 210.60859 487.08667 229.26598 472 249.83398 C 463.88533 260.89798 454.1129 277.61821 447.35156 288.93555 C 443.6969 295.05288 440.37999 299.50861 439.22266 300.72461 C 436.50666 303.57794 429.28666 309.69464 424.22266 311.39062 C 412.21332 315.95864 396.01134 313.91264 393.88867 313.55664 C 383.49934 312.88997 324.84729 293.89926 283.14062 291.80859 C 265.88996 290.94326 243.10484 292.31621 235.82617 293.04688 L 235.86719 293.05664 C 232.30985 292.59264 201.83669 299.12663 199.80469 300.39062 C 174.64735 309.59864 147.59066 324.90731 130.22266 338.05664 C 108.70532 353.92731 82.987339 375.22461 72.388672 389.22461 C 19.835339 450.53128 2.8213333 511.03794 0 581.72461 C 2.6666667 617.72461 4.3333259 655.94728 22.222656 696.72461 C 35.99999 726.61394 68.691267 781.44728 101.7793 809.72461 C 117.5313 823.18728 134.25134 835.96663 152.88867 846.39062 C 197.88867 869.05729 224.38867 884.05664 267.38867 884.05664 C 275.38601 884.23931 304.24864 884.14861 314.55664 883.72461 C 334.63397 882.89794 356.64334 879.71396 372.88867 874.2793 C 383.88467 873.80463 421.38468 861.5733 450.66602 843.16797 C 467.45402 832.68264 496.51162 812.17426 526.01562 800.68359 C 547.09029 792.47559 568.93667 789.66743 586.38867 792.24609 C 602.52467 793.12076 614.50601 796.88194 633.88867 807.22461 C 646.01401 817.59928 673.07797 840.85398 695.55664 853.83398 C 734.13931 877.80732 737.08334 880.61126 759.88867 887.80859 C 767.02201 890.05926 779.36134 893.76864 791.13867 896.05664 C 798.09201 897.74064 825.78334 902.05264 830.38867 903.05664 C 861.81267 902.74331 875.33267 902.76864 899.88867 899.05664 C 937.69401 893.14064 952.72784 885.65547 964.20117 882.99414 C 971.89717 879.87814 998.68059 868.76464 999.16992 868.55664 C 1004.0353 866.14864 1007.1396 863.55826 1019.5156 855.18359 C 1027.1823 850.01693 1035.2233 841.72331 1045.5566 834.05664 C 1053.5566 827.38997 1041.5553 839.05664 1084.3887 796.05664 C 1084.002 792.36997 1102.3887 779.05664 1119.3887 744.55664 C 1135.3913 715.95264 1146.2227 676.38997 1150.2227 656.05664 C 1153.3213 642.90464 1153.889 624.93131 1154.2637 615.55664 C 1154.389 607.05664 1153.6396 577.43293 1154.0156 574.68359 C 1154.1396 567.80893 1153.4507 532.77908 1154 517.45508 C 1153.8893 513.05641 1158.3887 493.55793 1160.8887 488.80859 C 1166.138 466.55793 1193.2147 439.85126 1198.1387 435.80859 C 1208.3547 427.41926 1220.4513 420.68997 1227.8887 415.55664 C 1250.4127 400.01131 1270.1567 382.88476 1292.666 353.60742 C 1296.638 346.55676 1301.434 335.74197 1307.8887 322.05664 C 1316.6433 303.49397 1325.1007 280.35664 1325.3887 268.55664 C 1328.7727 254.61531 1327.7313 243.85397 1328.3887 234.05664 C 1330.1367 207.98197 1324.8887 165.80731 1308.3887 124.05664 C 1302.8887 111.55664 1285.634 81.727307 1239.8887 46.056641 C 1225.414 34.769974 1207.2993 25.752641 1186.3887 15.056641 C 1165.7537 7.75247 1138.3765 0.97220052 1106.6562 0.095703125 C 1104.2776 0.029965821 1101.8741 -0.0029349208 1099.4473 0 z M 1106.2227 61.390625 A 164 164 0 0 1 1270.2227 225.39062 A 164 164 0 0 1 1106.2227 389.39062 A 164 164 0 0 1 1064.8047 384.02734 L 1005.2441 513.86133 C 1014.087 527.78342 1015.5749 545.71154 1007.2617 561.06445 C 997.00041 580.01612 975.31045 588.92046 955.02148 584.08203 L 831.83984 720.68555 C 832.05405 721.01671 832.27551 721.33935 832.48242 721.67773 C 845.94776 743.6964 838.73534 772.66865 816.38867 786.33398 C 794.04201 799.99932 764.96729 793.21593 751.50195 771.19727 C 738.03795 749.1786 745.25099 720.2083 767.59766 706.54297 C 780.89926 698.40883 796.58341 697.52086 809.94141 702.77734 L 930.28906 569.32031 C 923.91572 562.16762 919.90273 553.32884 918.6543 544.06445 L 733.36133 504.84766 A 47.460185 46.762985 0 0 1 693.01367 527.01367 A 47.460185 46.762985 0 0 1 652.80273 504.93555 L 495.61133 548.8457 L 494.20508 543.8125 A 203.33333 206.66667 0 0 1 498.22266 580.05664 A 203.33333 206.66667 0 0 1 294.88867 786.72461 A 203.33333 206.66667 0 0 1 91.556641 580.05664 A 203.33333 206.66667 0 0 1 294.88867 373.39062 A 203.33333 206.66667 0 0 1 488.77539 521.4375 L 645.7168 477.59766 A 47.460185 46.762985 0 0 1 692.08984 433.72266 L 716.61719 291.61133 C 700.01906 283.42393 689.10541 265.61806 690.4375 245.77734 C 692.13862 220.45809 713.14918 201.07176 737.87305 201.45703 C 738.67059 201.46946 739.47064 201.5026 740.27539 201.55664 C 766.02606 203.28597 785.50991 225.9083 783.75391 252.04297 C 782.24662 274.49416 765.54993 292.26539 744.55078 295.73828 L 719.39258 441.50195 A 47.460185 46.762985 0 0 1 740.26758 477.45312 L 923.59766 516.25586 C 923.66549 516.12776 923.7238 515.99687 923.79297 515.86914 C 935.20286 494.79729 960.69132 486.36914 982.72266 495.21875 L 1038.1094 374.48633 A 164 164 0 0 1 942.22266 225.39062 A 164 164 0 0 1 1106.2227 61.390625 z "
       transform="matrix(0.75,0,0,0.75,-33.667,638.957)" />
  </g>
</svg>
